<svg width="48" height="63" viewBox="0 0 48 63" fill="none" xmlns="http://www.w3.org/2000/svg">
<g clip-path="url(#clip0)">
<path fill-rule="evenodd" clip-rule="evenodd" d="M34.065 0.945598L43.065 9.92191C43.3458 10.2043 43.5023 10.5864 43.5 10.9841V43.8973C43.5 46.376 41.4853 48.3854 39 48.3854H28V45.3933H39C39.8285 45.3933 40.5 44.7235 40.5 43.8973V12.4802H34.5C32.8432 12.4802 31.5 11.1405 31.5 9.48806V3.50385H9C8.17153 3.50385 7.5 4.17361 7.5 4.9999V43.8973C7.5 44.7235 8.17153 45.3933 9 45.3933H20V48.3854H9C6.51469 48.3854 4.5 46.376 4.5 43.8973V4.9999C4.5 2.52113 6.51469 0.511743 9 0.511743H33C33.3987 0.509499 33.782 0.665555 34.065 0.945598Z" fill="#0346F2"/>
</g>
<path d="M16.1115 38.8621C16.6493 39.3801 17.5019 39.3801 18.0396 38.8621L22.6123 34.3043L22.6123 61.4132C22.6123 62.1777 23.2336 62.7974 24 62.7974C24.7665 62.7974 25.3878 62.1777 25.3878 61.4132L25.3878 34.3042L29.9577 38.8621C30.509 39.3931 31.3876 39.3779 31.92 38.8281C32.4394 38.2917 32.4394 37.4414 31.92 36.905L24.9813 29.9845C24.44 29.4433 23.5613 29.4422 23.0187 29.982C23.0179 29.9828 23.017 29.9836 23.0161 29.9845L16.0774 36.905C15.5449 37.4548 15.5602 38.331 16.1115 38.8621Z" fill="#0346F2"/>
<defs>
<clipPath id="clip0">
<rect width="48" height="47.8737" fill="white" transform="translate(0 0.511719)"/>
</clipPath>
</defs>
</svg>
