<svg width="54" height="54" viewBox="0 0 54 54" fill="none" xmlns="http://www.w3.org/2000/svg">
<path d="M26.9994 53.9834C41.9024 53.9834 53.9837 41.9022 53.9837 26.9992C53.9837 12.0962 41.9024 0.0148926 26.9994 0.0148926C12.0964 0.0148926 0.0151367 12.0962 0.0151367 26.9992C0.0151367 41.9022 12.0964 53.9834 26.9994 53.9834Z" fill="#47CD64"/>
<path d="M23.4657 37.7618C22.8586 37.7618 22.2785 37.5193 21.8503 37.0843L13.4899 28.588C12.6131 27.6953 12.6244 26.2635 13.5171 25.3844C14.4098 24.5098 15.8439 24.5189 16.7208 25.4115L23.4 32.1995L37.2185 16.9809C38.0635 16.0543 39.4955 15.9886 40.4176 16.8269C41.3442 17.6675 41.4122 19.0994 40.5716 20.0283L25.1424 37.0208C24.7233 37.483 24.1341 37.7504 23.5111 37.764C23.4952 37.7618 23.4816 37.7618 23.4657 37.7618Z" fill="white"/>
</svg>
