<svg width="13" height="9" viewBox="0 0 13 9" fill="none" xmlns="http://www.w3.org/2000/svg">
<path d="M11.4872 5.44921C11.2757 5.24247 10.9328 5.24247 10.7213 5.44921C10.5097 5.65595 10.5097 5.99107 10.7213 6.1978L11.1508 6.61763H9.70807C9.21163 6.61763 8.74932 6.4003 8.43894 6.02151L7.19364 4.49997L8.43894 2.97843C8.74932 2.59963 9.21163 2.3823 9.70807 2.3823H11.1508L10.7213 2.80213C10.5097 3.00887 10.5097 3.34399 10.7213 3.55072C10.8272 3.65423 10.9656 3.70584 11.1042 3.70584C11.2429 3.70584 11.3813 3.65423 11.4872 3.55072L12.8414 2.22719C13.0529 2.02045 13.0529 1.68533 12.8414 1.47859L11.4872 0.155053C11.2757 -0.0516842 10.9328 -0.0516842 10.7213 0.155053C10.5097 0.361789 10.5097 0.696909 10.7213 0.903646L11.1508 1.32347H9.70807C8.88067 1.32347 8.11015 1.68559 7.59312 2.31692L6.50003 3.65237L5.40695 2.31666C4.89019 1.68559 4.1194 1.32347 3.292 1.32347H0.541669C0.242668 1.32347 0 1.56065 0 1.85289C0 2.14513 0.242668 2.3823 0.541669 2.3823H3.292C3.78844 2.3823 4.25075 2.59963 4.56113 2.97843L5.80643 4.49997L4.56113 6.02151C4.25075 6.4003 3.78844 6.61763 3.292 6.61763H0.541669C0.242668 6.61763 0 6.85481 0 7.14705C0 7.43928 0.242668 7.67646 0.541669 7.67646H3.292C4.1194 7.67646 4.88992 7.31434 5.40695 6.68301L6.50003 5.34756L7.59312 6.68328C8.10988 7.31434 8.88067 7.67646 9.70807 7.67646H11.1508L10.7213 8.09629C10.5097 8.30302 10.5097 8.63814 10.7213 8.84488C10.8272 8.94838 10.9656 9 11.1042 9C11.2429 9 11.3813 8.94838 11.4872 8.84488L12.8414 7.52134C13.0529 7.31461 13.0529 6.97949 12.8414 6.77275L11.4872 5.44921Z" fill="#B0C1F3"/>
</svg>
