<svg width="17" height="17" viewBox="0 0 17 17" fill="none" xmlns="http://www.w3.org/2000/svg">
<g clip-path="url(#clip0)">
<path d="M8.5 3.43311C11.748 3.43311 14.6935 5.21013 16.867 8.0965C17.0443 8.33297 17.0443 8.66334 16.867 8.89981C14.6935 11.7897 11.748 13.5667 8.5 13.5667C5.25197 13.5667 2.30649 11.7897 0.133017 8.90329C-0.0443382 8.66682 -0.0443382 8.33645 0.133017 8.09998C2.30649 5.21013 5.25197 3.43311 8.5 3.43311ZM8.267 12.0679C10.4231 12.2035 12.2036 10.4265 12.068 8.2669C11.9567 6.48639 10.5135 5.04321 8.733 4.93193C6.57692 4.7963 4.79641 6.57333 4.93204 8.73289C5.04679 10.5099 6.48998 11.9531 8.267 12.0679ZM8.37481 10.4195C9.53631 10.4925 10.4961 9.5362 10.4196 8.3747C10.3605 7.4149 9.58152 6.63941 8.62171 6.57681C7.46021 6.50378 6.50041 7.46011 6.57692 8.62161C6.63951 9.58489 7.41848 10.3604 8.37481 10.4195Z" fill="#B0C1F3"/>
<line x1="15.3536" y1="1.35355" x2="1.35355" y2="15.3536" stroke="#B0C1F3"/>
</g>
<defs>
<clipPath id="clip0">
<rect width="17" height="17" fill="white" transform="matrix(-1 0 0 1 17 0)"/>
</clipPath>
</defs>
</svg>
