<svg width="17" height="11" viewBox="0 0 17 11" fill="none" xmlns="http://www.w3.org/2000/svg">
<path d="M8.5 0.433105C11.748 0.433105 14.6935 2.21013 16.867 5.0965C17.0443 5.33297 17.0443 5.66334 16.867 5.89981C14.6935 8.78965 11.748 10.5667 8.5 10.5667C5.25197 10.5667 2.30649 8.78965 0.133017 5.90329C-0.0443382 5.66682 -0.0443382 5.33645 0.133017 5.09998C2.30649 2.21013 5.25197 0.433105 8.5 0.433105ZM8.267 9.06786C10.4231 9.20348 12.2036 7.42646 12.068 5.2669C11.9567 3.48639 10.5135 2.04321 8.733 1.93193C6.57692 1.7963 4.79641 3.57333 4.93204 5.73289C5.04679 7.50992 6.48998 8.9531 8.267 9.06786ZM8.37481 7.4195C9.53631 7.49253 10.4961 6.5362 10.4196 5.3747C10.3605 4.4149 9.58152 3.63941 8.62171 3.57681C7.46021 3.50378 6.50041 4.46011 6.57692 5.62161C6.63951 6.58489 7.41848 7.36038 8.37481 7.4195Z" fill="#B0C1F3"/>
</svg>
