<svg width="44" height="44" viewBox="0 0 44 44" fill="none" xmlns="http://www.w3.org/2000/svg">
<circle cx="22" cy="22" r="21" stroke="#C4C4C4" stroke-width="2"/>
<mask id="mask0" mask-type="alpha" maskUnits="userSpaceOnUse" x="6" y="10" width="32" height="32">
<g clip-path="url(#clip0)">
<path d="M37.8131 41.1806L37.0215 38.0139C36.6458 36.4777 35.5071 35.2423 34.0065 34.7431L28.2009 32.8087C26.7852 32.2189 26.1373 29.9389 25.9974 29.0734C27.0762 28.1763 27.7703 26.9 27.937 25.5069C27.9132 25.269 27.9694 25.0299 28.0967 24.8274C28.3024 24.7758 28.4708 24.6285 28.5492 24.4315C28.9291 23.5117 29.1675 22.5397 29.2564 21.5486C29.2566 21.4947 29.25 21.4411 29.2367 21.3889C29.1422 21.0038 28.9157 20.6639 28.5967 20.4284V16.9305C28.5967 14.8049 27.9475 13.9327 27.264 13.4274C27.1335 12.4035 26.0371 10.3333 21.9996 10.3333C18.4175 10.4775 15.5466 13.3484 15.4024 16.9306V20.4284C15.0833 20.664 14.8569 21.0039 14.7624 21.389C14.749 21.4411 14.7424 21.4948 14.7426 21.5486C14.8314 22.5403 15.0699 23.5127 15.4499 24.433C15.507 24.6194 15.6569 24.7629 15.8457 24.8117C15.9196 24.8486 16.0581 25.0399 16.0581 25.507C16.2258 26.9041 16.924 28.1833 18.0083 29.0801C17.8698 29.9443 17.2258 32.223 15.8497 32.7983L9.99267 34.7431C8.49327 35.2423 7.35525 36.4765 6.97909 38.0114L6.18742 41.1781C6.0978 41.5312 6.31143 41.8902 6.66458 41.9798C6.71734 41.9932 6.77158 42 6.82601 42.0001H37.1732C37.5376 42 37.8329 41.7045 37.8328 41.3402C37.8327 41.2863 37.8261 41.2327 37.8131 41.1806Z" fill="#455A64"/>
</g>
</mask>
<g mask="url(#mask0)">
<circle cx="22" cy="22" r="20" fill="#C4C4C4"/>
</g>
<defs>
<clipPath id="clip0">
<rect width="31.6667" height="31.6667" fill="white" transform="translate(6.1665 10.3333)"/>
</clipPath>
</defs>
</svg>
