<svg width="24" height="24" viewBox="0 0 24 24" fill="none" xmlns="http://www.w3.org/2000/svg">
<g clip-path="url(#clip0)">
<path d="M5.40712 19.072C2.86448 17.0459 1.40625 14.0206 1.40625 10.7718C1.40625 7.5231 2.86439 4.49783 5.40694 2.4718C5.71064 2.22979 5.76061 1.78738 5.51859 1.48372C5.27662 1.18002 4.83422 1.13 4.53052 1.37202C1.65131 3.66641 0 7.0925 0 10.7718C0 14.4513 1.65136 17.8774 4.53075 20.1718C4.83427 20.4137 5.27672 20.3638 5.51883 20.06C5.7608 19.7563 5.71083 19.314 5.40712 19.072Z" fill="#8E94A7"/>
<path d="M19.4695 1.37206C19.1658 1.13009 18.7235 1.18006 18.4815 1.48376C18.2394 1.78747 18.2894 2.22983 18.5931 2.47184C21.1356 4.49792 22.5937 7.52314 22.5937 10.7718C22.5937 14.0205 21.1356 17.0457 18.5931 19.0718C18.2894 19.3138 18.2394 19.7562 18.4814 20.0599C18.7235 20.3637 19.166 20.4134 19.4695 20.1716C22.3487 17.8772 24 14.4511 24 10.7718C24 7.09255 22.3487 3.66645 19.4695 1.37206Z" fill="#8E94A7"/>
<path d="M7.75007 16.1371C6.10167 14.8259 5.15625 12.8703 5.15625 10.7718C5.15625 8.6733 6.10167 6.71772 7.75012 5.40653C8.05401 5.1648 8.10445 4.72249 7.86267 4.41855C7.62089 4.11461 7.17857 4.06422 6.87468 4.30595C4.88892 5.8855 3.75 8.24219 3.75 10.7718C3.75 13.3015 4.88892 15.6581 6.87464 17.2376C7.17876 17.4795 7.62098 17.4288 7.86262 17.125C8.10435 16.8212 8.05396 16.3788 7.75007 16.1371Z" fill="#8E94A7"/>
<path d="M17.1253 4.30606C16.8214 4.06437 16.3791 4.11471 16.1373 4.41865C15.8956 4.72254 15.946 5.1649 16.2499 5.40663C17.8983 6.71778 18.8437 8.67331 18.8437 10.7719C18.8437 12.8704 17.8983 14.826 16.2498 16.1371C15.9459 16.3789 15.8955 16.8212 16.1373 17.1251C16.3792 17.4292 16.8216 17.4793 17.1253 17.2377C19.111 15.6582 20.2499 13.3015 20.2499 10.7719C20.2499 8.24224 19.111 5.88556 17.1253 4.30606Z" fill="#8E94A7"/>
<path d="M12 7.26562C10.0615 7.26562 8.48438 8.84273 8.48438 10.7812C8.48438 12.479 9.69412 13.8995 11.2969 14.2261V22.0781C11.2969 22.4664 11.6117 22.7812 12 22.7812C12.3883 22.7812 12.7031 22.4664 12.7031 22.0781V14.2261C14.3059 13.8995 15.5156 12.4791 15.5156 10.7812C15.5156 8.84273 13.9385 7.26562 12 7.26562ZM12 12.8906C10.8369 12.8906 9.89062 11.9444 9.89062 10.7812C9.89062 9.61814 10.8369 8.67188 12 8.67188C13.1631 8.67188 14.1094 9.61814 14.1094 10.7812C14.1094 11.9444 13.1631 12.8906 12 12.8906Z" fill="#8E94A7"/>
</g>
<defs>
<clipPath id="clip0">
<rect width="24" height="24" fill="white"/>
</clipPath>
</defs>
</svg>
